<mxfile host="app.diagrams.net" modified="2024-02-04T01:49:19.369Z" agent="Mozilla/5.0 (Windows NT 10.0; Win64; x64; rv:122.0) Gecko/20100101 Firefox/122.0" etag="jnVfy4lYA9ii_6HZ4SHp" version="23.1.1" type="device" pages="4">
  <diagram name="1" id="yvSwJFUcEFePVroLK8RC">
    <mxGraphModel dx="1235" dy="1724" grid="1" gridSize="10" guides="1" tooltips="1" connect="1" arrows="1" fold="1" page="1" pageScale="1" pageWidth="850" pageHeight="1100" math="0" shadow="0">
      <root>
        <mxCell id="0" />
        <mxCell id="1" parent="0" />
        <mxCell id="CPKtRZqal_yIRIISHAlf-6" style="edgeStyle=orthogonalEdgeStyle;rounded=0;orthogonalLoop=1;jettySize=auto;html=1;entryX=0.5;entryY=0;entryDx=0;entryDy=0;" edge="1" parent="1" source="CPKtRZqal_yIRIISHAlf-2" target="CPKtRZqal_yIRIISHAlf-3">
          <mxGeometry relative="1" as="geometry" />
        </mxCell>
        <mxCell id="CPKtRZqal_yIRIISHAlf-2" value="$" style="ellipse;whiteSpace=wrap;html=1;aspect=fixed;" vertex="1" parent="1">
          <mxGeometry x="385" y="170" width="80" height="80" as="geometry" />
        </mxCell>
        <mxCell id="bLUyiBN9OCDSMqxy32B6-7" style="rounded=0;orthogonalLoop=1;jettySize=auto;html=1;" edge="1" parent="1" source="CPKtRZqal_yIRIISHAlf-3" target="bLUyiBN9OCDSMqxy32B6-3">
          <mxGeometry relative="1" as="geometry" />
        </mxCell>
        <mxCell id="CPKtRZqal_yIRIISHAlf-3" value="aA" style="ellipse;whiteSpace=wrap;html=1;aspect=fixed;" vertex="1" parent="1">
          <mxGeometry x="385" y="300" width="80" height="80" as="geometry" />
        </mxCell>
        <mxCell id="CPKtRZqal_yIRIISHAlf-5" value="&lt;font style=&quot;font-size: 21px;&quot;&gt;aaabbb&lt;/font&gt;" style="text;html=1;strokeColor=none;fillColor=none;align=center;verticalAlign=middle;whiteSpace=wrap;rounded=0;" vertex="1" parent="1">
          <mxGeometry x="395" y="120" width="60" height="30" as="geometry" />
        </mxCell>
        <mxCell id="bLUyiBN9OCDSMqxy32B6-2" value="a" style="ellipse;whiteSpace=wrap;html=1;aspect=fixed;" vertex="1" parent="1">
          <mxGeometry x="330" y="410" width="80" height="80" as="geometry" />
        </mxCell>
        <mxCell id="bLUyiBN9OCDSMqxy32B6-3" value="AB" style="ellipse;whiteSpace=wrap;html=1;aspect=fixed;" vertex="1" parent="1">
          <mxGeometry x="470" y="410" width="80" height="80" as="geometry" />
        </mxCell>
        <mxCell id="bLUyiBN9OCDSMqxy32B6-4" style="rounded=0;orthogonalLoop=1;jettySize=auto;html=1;entryX=0.642;entryY=0.038;entryDx=0;entryDy=0;entryPerimeter=0;" edge="1" parent="1" source="CPKtRZqal_yIRIISHAlf-3" target="bLUyiBN9OCDSMqxy32B6-2">
          <mxGeometry relative="1" as="geometry" />
        </mxCell>
        <mxCell id="bLUyiBN9OCDSMqxy32B6-5" value="a" style="ellipse;whiteSpace=wrap;html=1;aspect=fixed;" vertex="1" parent="1">
          <mxGeometry x="400" y="520" width="80" height="80" as="geometry" />
        </mxCell>
        <mxCell id="bLUyiBN9OCDSMqxy32B6-16" style="rounded=0;orthogonalLoop=1;jettySize=auto;html=1;entryX=0.5;entryY=0;entryDx=0;entryDy=0;" edge="1" parent="1" source="bLUyiBN9OCDSMqxy32B6-6" target="bLUyiBN9OCDSMqxy32B6-11">
          <mxGeometry relative="1" as="geometry" />
        </mxCell>
        <mxCell id="bLUyiBN9OCDSMqxy32B6-6" value="ABB" style="ellipse;whiteSpace=wrap;html=1;aspect=fixed;" vertex="1" parent="1">
          <mxGeometry x="570" y="520" width="80" height="80" as="geometry" />
        </mxCell>
        <mxCell id="bLUyiBN9OCDSMqxy32B6-8" style="rounded=0;orthogonalLoop=1;jettySize=auto;html=1;entryX=0.775;entryY=0.046;entryDx=0;entryDy=0;entryPerimeter=0;" edge="1" parent="1" source="bLUyiBN9OCDSMqxy32B6-3" target="bLUyiBN9OCDSMqxy32B6-5">
          <mxGeometry relative="1" as="geometry" />
        </mxCell>
        <mxCell id="bLUyiBN9OCDSMqxy32B6-9" style="rounded=0;orthogonalLoop=1;jettySize=auto;html=1;entryX=0.392;entryY=-0.012;entryDx=0;entryDy=0;entryPerimeter=0;" edge="1" parent="1" source="bLUyiBN9OCDSMqxy32B6-3" target="bLUyiBN9OCDSMqxy32B6-6">
          <mxGeometry relative="1" as="geometry" />
        </mxCell>
        <mxCell id="bLUyiBN9OCDSMqxy32B6-10" value="b" style="ellipse;whiteSpace=wrap;html=1;aspect=fixed;" vertex="1" parent="1">
          <mxGeometry x="500" y="640" width="80" height="80" as="geometry" />
        </mxCell>
        <mxCell id="bLUyiBN9OCDSMqxy32B6-11" value="BB" style="ellipse;whiteSpace=wrap;html=1;aspect=fixed;" vertex="1" parent="1">
          <mxGeometry x="670" y="640" width="80" height="80" as="geometry" />
        </mxCell>
        <mxCell id="bLUyiBN9OCDSMqxy32B6-12" value="b" style="ellipse;whiteSpace=wrap;html=1;aspect=fixed;" vertex="1" parent="1">
          <mxGeometry x="600" y="750" width="80" height="80" as="geometry" />
        </mxCell>
        <mxCell id="bLUyiBN9OCDSMqxy32B6-19" style="edgeStyle=orthogonalEdgeStyle;rounded=0;orthogonalLoop=1;jettySize=auto;html=1;" edge="1" parent="1" source="bLUyiBN9OCDSMqxy32B6-13" target="bLUyiBN9OCDSMqxy32B6-14">
          <mxGeometry relative="1" as="geometry" />
        </mxCell>
        <mxCell id="bLUyiBN9OCDSMqxy32B6-13" value="B" style="ellipse;whiteSpace=wrap;html=1;aspect=fixed;" vertex="1" parent="1">
          <mxGeometry x="770" y="760" width="80" height="80" as="geometry" />
        </mxCell>
        <mxCell id="bLUyiBN9OCDSMqxy32B6-14" value="b" style="ellipse;whiteSpace=wrap;html=1;aspect=fixed;" vertex="1" parent="1">
          <mxGeometry x="770" y="890" width="80" height="80" as="geometry" />
        </mxCell>
        <mxCell id="bLUyiBN9OCDSMqxy32B6-15" style="rounded=0;orthogonalLoop=1;jettySize=auto;html=1;entryX=0.417;entryY=0.033;entryDx=0;entryDy=0;entryPerimeter=0;" edge="1" parent="1" source="bLUyiBN9OCDSMqxy32B6-6" target="bLUyiBN9OCDSMqxy32B6-10">
          <mxGeometry relative="1" as="geometry" />
        </mxCell>
        <mxCell id="bLUyiBN9OCDSMqxy32B6-17" style="rounded=0;orthogonalLoop=1;jettySize=auto;html=1;entryX=0.726;entryY=-0.009;entryDx=0;entryDy=0;entryPerimeter=0;" edge="1" parent="1" source="bLUyiBN9OCDSMqxy32B6-11" target="bLUyiBN9OCDSMqxy32B6-12">
          <mxGeometry relative="1" as="geometry" />
        </mxCell>
        <mxCell id="bLUyiBN9OCDSMqxy32B6-18" style="rounded=0;orthogonalLoop=1;jettySize=auto;html=1;entryX=0.435;entryY=-0.003;entryDx=0;entryDy=0;entryPerimeter=0;" edge="1" parent="1" source="bLUyiBN9OCDSMqxy32B6-11" target="bLUyiBN9OCDSMqxy32B6-13">
          <mxGeometry relative="1" as="geometry" />
        </mxCell>
        <mxCell id="bLUyiBN9OCDSMqxy32B6-27" style="edgeStyle=orthogonalEdgeStyle;rounded=0;orthogonalLoop=1;jettySize=auto;html=1;entryX=0.5;entryY=0;entryDx=0;entryDy=0;" edge="1" parent="1" source="bLUyiBN9OCDSMqxy32B6-20" target="bLUyiBN9OCDSMqxy32B6-22">
          <mxGeometry relative="1" as="geometry" />
        </mxCell>
        <mxCell id="bLUyiBN9OCDSMqxy32B6-20" value="$" style="ellipse;whiteSpace=wrap;html=1;aspect=fixed;" vertex="1" parent="1">
          <mxGeometry x="385" y="-650" width="80" height="80" as="geometry" />
        </mxCell>
        <mxCell id="bLUyiBN9OCDSMqxy32B6-21" value="&lt;font style=&quot;font-size: 21px;&quot;&gt;aabb&lt;/font&gt;" style="text;html=1;strokeColor=none;fillColor=none;align=center;verticalAlign=middle;whiteSpace=wrap;rounded=0;" vertex="1" parent="1">
          <mxGeometry x="395" y="-700" width="60" height="30" as="geometry" />
        </mxCell>
        <mxCell id="bLUyiBN9OCDSMqxy32B6-25" style="rounded=0;orthogonalLoop=1;jettySize=auto;html=1;entryX=0.5;entryY=0;entryDx=0;entryDy=0;" edge="1" parent="1" source="bLUyiBN9OCDSMqxy32B6-22" target="bLUyiBN9OCDSMqxy32B6-23">
          <mxGeometry relative="1" as="geometry" />
        </mxCell>
        <mxCell id="bLUyiBN9OCDSMqxy32B6-22" value="aA" style="ellipse;whiteSpace=wrap;html=1;aspect=fixed;" vertex="1" parent="1">
          <mxGeometry x="385" y="-520" width="80" height="80" as="geometry" />
        </mxCell>
        <mxCell id="bLUyiBN9OCDSMqxy32B6-23" value="a" style="ellipse;whiteSpace=wrap;html=1;aspect=fixed;" vertex="1" parent="1">
          <mxGeometry x="300" y="-390" width="80" height="80" as="geometry" />
        </mxCell>
        <mxCell id="bLUyiBN9OCDSMqxy32B6-30" style="rounded=0;orthogonalLoop=1;jettySize=auto;html=1;" edge="1" parent="1" source="bLUyiBN9OCDSMqxy32B6-24" target="bLUyiBN9OCDSMqxy32B6-28">
          <mxGeometry relative="1" as="geometry" />
        </mxCell>
        <mxCell id="bLUyiBN9OCDSMqxy32B6-33" style="rounded=0;orthogonalLoop=1;jettySize=auto;html=1;entryX=0.5;entryY=0;entryDx=0;entryDy=0;" edge="1" parent="1" source="bLUyiBN9OCDSMqxy32B6-24" target="bLUyiBN9OCDSMqxy32B6-32">
          <mxGeometry relative="1" as="geometry" />
        </mxCell>
        <mxCell id="bLUyiBN9OCDSMqxy32B6-24" value="AB" style="ellipse;whiteSpace=wrap;html=1;aspect=fixed;" vertex="1" parent="1">
          <mxGeometry x="465" y="-390" width="80" height="80" as="geometry" />
        </mxCell>
        <mxCell id="bLUyiBN9OCDSMqxy32B6-26" style="rounded=0;orthogonalLoop=1;jettySize=auto;html=1;entryX=0.563;entryY=0;entryDx=0;entryDy=0;entryPerimeter=0;" edge="1" parent="1" source="bLUyiBN9OCDSMqxy32B6-22" target="bLUyiBN9OCDSMqxy32B6-24">
          <mxGeometry relative="1" as="geometry" />
        </mxCell>
        <mxCell id="bLUyiBN9OCDSMqxy32B6-28" value="b" style="ellipse;whiteSpace=wrap;html=1;aspect=fixed;" vertex="1" parent="1">
          <mxGeometry x="400" y="-280" width="80" height="80" as="geometry" />
        </mxCell>
        <mxCell id="bLUyiBN9OCDSMqxy32B6-29" value="&lt;pre&gt;&lt;code class=&quot;!whitespace-pre hljs language-css&quot;&gt;Îµ &lt;/code&gt;&lt;/pre&gt;" style="ellipse;whiteSpace=wrap;html=1;aspect=fixed;" vertex="1" parent="1">
          <mxGeometry x="500" y="-280" width="80" height="80" as="geometry" />
        </mxCell>
        <mxCell id="bLUyiBN9OCDSMqxy32B6-31" style="rounded=0;orthogonalLoop=1;jettySize=auto;html=1;entryX=0.39;entryY=0.03;entryDx=0;entryDy=0;entryPerimeter=0;" edge="1" parent="1" source="bLUyiBN9OCDSMqxy32B6-24" target="bLUyiBN9OCDSMqxy32B6-29">
          <mxGeometry relative="1" as="geometry" />
        </mxCell>
        <mxCell id="bLUyiBN9OCDSMqxy32B6-36" style="rounded=0;orthogonalLoop=1;jettySize=auto;html=1;entryX=0.5;entryY=0;entryDx=0;entryDy=0;" edge="1" parent="1" source="bLUyiBN9OCDSMqxy32B6-32" target="bLUyiBN9OCDSMqxy32B6-34">
          <mxGeometry relative="1" as="geometry" />
        </mxCell>
        <mxCell id="bLUyiBN9OCDSMqxy32B6-37" style="rounded=0;orthogonalLoop=1;jettySize=auto;html=1;" edge="1" parent="1" source="bLUyiBN9OCDSMqxy32B6-32" target="bLUyiBN9OCDSMqxy32B6-35">
          <mxGeometry relative="1" as="geometry" />
        </mxCell>
        <mxCell id="bLUyiBN9OCDSMqxy32B6-32" value="B" style="ellipse;whiteSpace=wrap;html=1;aspect=fixed;" vertex="1" parent="1">
          <mxGeometry x="610" y="-280" width="80" height="80" as="geometry" />
        </mxCell>
        <mxCell id="bLUyiBN9OCDSMqxy32B6-34" value="b" style="ellipse;whiteSpace=wrap;html=1;aspect=fixed;" vertex="1" parent="1">
          <mxGeometry x="545" y="-150" width="80" height="80" as="geometry" />
        </mxCell>
        <mxCell id="bLUyiBN9OCDSMqxy32B6-35" value="&lt;pre&gt;&lt;code class=&quot;!whitespace-pre hljs language-css&quot;&gt;Îµ &lt;/code&gt;&lt;/pre&gt;" style="ellipse;whiteSpace=wrap;html=1;aspect=fixed;" vertex="1" parent="1">
          <mxGeometry x="690" y="-150" width="80" height="80" as="geometry" />
        </mxCell>
      </root>
    </mxGraphModel>
  </diagram>
  <diagram id="0SURJOx_J0bY6ugE43Bw" name="2">
    <mxGraphModel dx="1000" dy="1605" grid="1" gridSize="10" guides="1" tooltips="1" connect="1" arrows="1" fold="1" page="1" pageScale="1" pageWidth="850" pageHeight="1100" math="0" shadow="0">
      <root>
        <mxCell id="0" />
        <mxCell id="1" parent="0" />
        <mxCell id="GjYqQgAe5EH2P6FWawQj-5" style="edgeStyle=orthogonalEdgeStyle;rounded=0;orthogonalLoop=1;jettySize=auto;html=1;" edge="1" parent="1" source="GjYqQgAe5EH2P6FWawQj-1" target="GjYqQgAe5EH2P6FWawQj-2">
          <mxGeometry relative="1" as="geometry" />
        </mxCell>
        <mxCell id="GjYqQgAe5EH2P6FWawQj-1" value="$" style="ellipse;whiteSpace=wrap;html=1;aspect=fixed;" vertex="1" parent="1">
          <mxGeometry x="210" y="320" width="80" height="80" as="geometry" />
        </mxCell>
        <mxCell id="pmFsqigMqEM2GbrmxzJh-2" style="edgeStyle=orthogonalEdgeStyle;rounded=0;orthogonalLoop=1;jettySize=auto;html=1;" edge="1" parent="1" source="GjYqQgAe5EH2P6FWawQj-2" target="pmFsqigMqEM2GbrmxzJh-1">
          <mxGeometry relative="1" as="geometry" />
        </mxCell>
        <mxCell id="GjYqQgAe5EH2P6FWawQj-2" value="E" style="ellipse;whiteSpace=wrap;html=1;aspect=fixed;" vertex="1" parent="1">
          <mxGeometry x="210" y="440" width="80" height="80" as="geometry" />
        </mxCell>
        <mxCell id="GjYqQgAe5EH2P6FWawQj-4" value="2 + 3 * 4" style="text;html=1;strokeColor=none;fillColor=none;align=center;verticalAlign=middle;whiteSpace=wrap;rounded=0;" vertex="1" parent="1">
          <mxGeometry x="220" y="270" width="60" height="30" as="geometry" />
        </mxCell>
        <mxCell id="pmFsqigMqEM2GbrmxzJh-6" style="rounded=0;orthogonalLoop=1;jettySize=auto;html=1;" edge="1" parent="1" source="pmFsqigMqEM2GbrmxzJh-1" target="pmFsqigMqEM2GbrmxzJh-5">
          <mxGeometry relative="1" as="geometry" />
        </mxCell>
        <mxCell id="pmFsqigMqEM2GbrmxzJh-1" value="&lt;div&gt;E + T&lt;/div&gt;" style="ellipse;whiteSpace=wrap;html=1;aspect=fixed;" vertex="1" parent="1">
          <mxGeometry x="210" y="560" width="80" height="80" as="geometry" />
        </mxCell>
        <mxCell id="pmFsqigMqEM2GbrmxzJh-10" style="rounded=0;orthogonalLoop=1;jettySize=auto;html=1;" edge="1" parent="1" source="pmFsqigMqEM2GbrmxzJh-3" target="pmFsqigMqEM2GbrmxzJh-7">
          <mxGeometry relative="1" as="geometry" />
        </mxCell>
        <mxCell id="pmFsqigMqEM2GbrmxzJh-3" value="T" style="ellipse;whiteSpace=wrap;html=1;aspect=fixed;" vertex="1" parent="1">
          <mxGeometry x="130" y="670" width="80" height="80" as="geometry" />
        </mxCell>
        <mxCell id="pmFsqigMqEM2GbrmxzJh-4" style="rounded=0;orthogonalLoop=1;jettySize=auto;html=1;entryX=0.782;entryY=0.03;entryDx=0;entryDy=0;entryPerimeter=0;" edge="1" parent="1" source="pmFsqigMqEM2GbrmxzJh-1" target="pmFsqigMqEM2GbrmxzJh-3">
          <mxGeometry relative="1" as="geometry" />
        </mxCell>
        <mxCell id="pmFsqigMqEM2GbrmxzJh-15" style="rounded=0;orthogonalLoop=1;jettySize=auto;html=1;entryX=0.5;entryY=0;entryDx=0;entryDy=0;" edge="1" parent="1" source="pmFsqigMqEM2GbrmxzJh-5" target="pmFsqigMqEM2GbrmxzJh-13">
          <mxGeometry relative="1" as="geometry" />
        </mxCell>
        <mxCell id="pmFsqigMqEM2GbrmxzJh-16" style="rounded=0;orthogonalLoop=1;jettySize=auto;html=1;" edge="1" parent="1" source="pmFsqigMqEM2GbrmxzJh-5" target="pmFsqigMqEM2GbrmxzJh-14">
          <mxGeometry relative="1" as="geometry" />
        </mxCell>
        <mxCell id="pmFsqigMqEM2GbrmxzJh-5" value="T * F" style="ellipse;whiteSpace=wrap;html=1;aspect=fixed;" vertex="1" parent="1">
          <mxGeometry x="280" y="670" width="80" height="80" as="geometry" />
        </mxCell>
        <mxCell id="pmFsqigMqEM2GbrmxzJh-11" style="rounded=0;orthogonalLoop=1;jettySize=auto;html=1;entryX=0.5;entryY=0;entryDx=0;entryDy=0;" edge="1" parent="1" source="pmFsqigMqEM2GbrmxzJh-7" target="pmFsqigMqEM2GbrmxzJh-8">
          <mxGeometry relative="1" as="geometry" />
        </mxCell>
        <mxCell id="pmFsqigMqEM2GbrmxzJh-7" value="F" style="ellipse;whiteSpace=wrap;html=1;aspect=fixed;" vertex="1" parent="1">
          <mxGeometry x="120" y="790" width="80" height="80" as="geometry" />
        </mxCell>
        <mxCell id="pmFsqigMqEM2GbrmxzJh-12" style="rounded=0;orthogonalLoop=1;jettySize=auto;html=1;" edge="1" parent="1" source="pmFsqigMqEM2GbrmxzJh-8" target="pmFsqigMqEM2GbrmxzJh-9">
          <mxGeometry relative="1" as="geometry" />
        </mxCell>
        <mxCell id="pmFsqigMqEM2GbrmxzJh-8" value="N" style="ellipse;whiteSpace=wrap;html=1;aspect=fixed;" vertex="1" parent="1">
          <mxGeometry x="120" y="910" width="80" height="80" as="geometry" />
        </mxCell>
        <mxCell id="pmFsqigMqEM2GbrmxzJh-9" value="2" style="ellipse;whiteSpace=wrap;html=1;aspect=fixed;" vertex="1" parent="1">
          <mxGeometry x="120" y="1030" width="80" height="80" as="geometry" />
        </mxCell>
        <mxCell id="pmFsqigMqEM2GbrmxzJh-20" style="edgeStyle=orthogonalEdgeStyle;rounded=0;orthogonalLoop=1;jettySize=auto;html=1;entryX=0.5;entryY=0;entryDx=0;entryDy=0;" edge="1" parent="1" source="pmFsqigMqEM2GbrmxzJh-13" target="pmFsqigMqEM2GbrmxzJh-17">
          <mxGeometry relative="1" as="geometry" />
        </mxCell>
        <mxCell id="pmFsqigMqEM2GbrmxzJh-13" value="F" style="ellipse;whiteSpace=wrap;html=1;aspect=fixed;" vertex="1" parent="1">
          <mxGeometry x="240" y="790" width="80" height="80" as="geometry" />
        </mxCell>
        <mxCell id="pmFsqigMqEM2GbrmxzJh-22" style="rounded=0;orthogonalLoop=1;jettySize=auto;html=1;" edge="1" parent="1" source="pmFsqigMqEM2GbrmxzJh-14" target="pmFsqigMqEM2GbrmxzJh-19">
          <mxGeometry relative="1" as="geometry" />
        </mxCell>
        <mxCell id="pmFsqigMqEM2GbrmxzJh-14" value="N" style="ellipse;whiteSpace=wrap;html=1;aspect=fixed;" vertex="1" parent="1">
          <mxGeometry x="370" y="790" width="80" height="80" as="geometry" />
        </mxCell>
        <mxCell id="pmFsqigMqEM2GbrmxzJh-21" style="rounded=0;orthogonalLoop=1;jettySize=auto;html=1;" edge="1" parent="1" source="pmFsqigMqEM2GbrmxzJh-17" target="pmFsqigMqEM2GbrmxzJh-18">
          <mxGeometry relative="1" as="geometry" />
        </mxCell>
        <mxCell id="pmFsqigMqEM2GbrmxzJh-17" value="N" style="ellipse;whiteSpace=wrap;html=1;aspect=fixed;" vertex="1" parent="1">
          <mxGeometry x="240" y="910" width="80" height="80" as="geometry" />
        </mxCell>
        <mxCell id="pmFsqigMqEM2GbrmxzJh-18" value="3" style="ellipse;whiteSpace=wrap;html=1;aspect=fixed;" vertex="1" parent="1">
          <mxGeometry x="260" y="1030" width="80" height="80" as="geometry" />
        </mxCell>
        <mxCell id="pmFsqigMqEM2GbrmxzJh-19" value="4" style="ellipse;whiteSpace=wrap;html=1;aspect=fixed;" vertex="1" parent="1">
          <mxGeometry x="385" y="910" width="80" height="80" as="geometry" />
        </mxCell>
        <mxCell id="gANTUHYUpx8kwHt70Wjk-4" style="edgeStyle=orthogonalEdgeStyle;rounded=0;orthogonalLoop=1;jettySize=auto;html=1;entryX=0.5;entryY=0;entryDx=0;entryDy=0;" edge="1" parent="1" source="gANTUHYUpx8kwHt70Wjk-1" target="gANTUHYUpx8kwHt70Wjk-3">
          <mxGeometry relative="1" as="geometry" />
        </mxCell>
        <mxCell id="gANTUHYUpx8kwHt70Wjk-1" value="$" style="ellipse;whiteSpace=wrap;html=1;aspect=fixed;" vertex="1" parent="1">
          <mxGeometry x="190" y="-700" width="80" height="80" as="geometry" />
        </mxCell>
        <mxCell id="gANTUHYUpx8kwHt70Wjk-2" value="3 * (2 + 1)" style="text;html=1;strokeColor=none;fillColor=none;align=center;verticalAlign=middle;whiteSpace=wrap;rounded=0;" vertex="1" parent="1">
          <mxGeometry x="200" y="-750" width="60" height="30" as="geometry" />
        </mxCell>
        <mxCell id="gANTUHYUpx8kwHt70Wjk-10" style="edgeStyle=orthogonalEdgeStyle;rounded=0;orthogonalLoop=1;jettySize=auto;html=1;" edge="1" parent="1" source="gANTUHYUpx8kwHt70Wjk-3" target="gANTUHYUpx8kwHt70Wjk-5">
          <mxGeometry relative="1" as="geometry" />
        </mxCell>
        <mxCell id="gANTUHYUpx8kwHt70Wjk-3" value="T" style="ellipse;whiteSpace=wrap;html=1;aspect=fixed;" vertex="1" parent="1">
          <mxGeometry x="190" y="-570" width="80" height="80" as="geometry" />
        </mxCell>
        <mxCell id="gANTUHYUpx8kwHt70Wjk-9" style="rounded=0;orthogonalLoop=1;jettySize=auto;html=1;" edge="1" parent="1" source="gANTUHYUpx8kwHt70Wjk-5" target="gANTUHYUpx8kwHt70Wjk-6">
          <mxGeometry relative="1" as="geometry" />
        </mxCell>
        <mxCell id="gANTUHYUpx8kwHt70Wjk-5" value="T * F" style="ellipse;whiteSpace=wrap;html=1;aspect=fixed;" vertex="1" parent="1">
          <mxGeometry x="190" y="-450" width="80" height="80" as="geometry" />
        </mxCell>
        <mxCell id="gANTUHYUpx8kwHt70Wjk-22" style="rounded=0;orthogonalLoop=1;jettySize=auto;html=1;" edge="1" parent="1" source="gANTUHYUpx8kwHt70Wjk-6" target="gANTUHYUpx8kwHt70Wjk-15">
          <mxGeometry relative="1" as="geometry" />
        </mxCell>
        <mxCell id="gANTUHYUpx8kwHt70Wjk-6" value="(E)" style="ellipse;whiteSpace=wrap;html=1;aspect=fixed;" vertex="1" parent="1">
          <mxGeometry x="290" y="-340" width="80" height="80" as="geometry" />
        </mxCell>
        <mxCell id="gANTUHYUpx8kwHt70Wjk-12" style="edgeStyle=orthogonalEdgeStyle;rounded=0;orthogonalLoop=1;jettySize=auto;html=1;" edge="1" parent="1" source="gANTUHYUpx8kwHt70Wjk-7" target="gANTUHYUpx8kwHt70Wjk-11">
          <mxGeometry relative="1" as="geometry" />
        </mxCell>
        <mxCell id="gANTUHYUpx8kwHt70Wjk-7" value="F" style="ellipse;whiteSpace=wrap;html=1;aspect=fixed;" vertex="1" parent="1">
          <mxGeometry x="120" y="-340" width="80" height="80" as="geometry" />
        </mxCell>
        <mxCell id="gANTUHYUpx8kwHt70Wjk-8" style="rounded=0;orthogonalLoop=1;jettySize=auto;html=1;entryX=0.558;entryY=-0.029;entryDx=0;entryDy=0;entryPerimeter=0;" edge="1" parent="1" source="gANTUHYUpx8kwHt70Wjk-5" target="gANTUHYUpx8kwHt70Wjk-7">
          <mxGeometry relative="1" as="geometry" />
        </mxCell>
        <mxCell id="gANTUHYUpx8kwHt70Wjk-14" style="edgeStyle=orthogonalEdgeStyle;rounded=0;orthogonalLoop=1;jettySize=auto;html=1;" edge="1" parent="1" source="gANTUHYUpx8kwHt70Wjk-11" target="gANTUHYUpx8kwHt70Wjk-13">
          <mxGeometry relative="1" as="geometry" />
        </mxCell>
        <mxCell id="gANTUHYUpx8kwHt70Wjk-11" value="N" style="ellipse;whiteSpace=wrap;html=1;aspect=fixed;" vertex="1" parent="1">
          <mxGeometry x="120" y="-220" width="80" height="80" as="geometry" />
        </mxCell>
        <mxCell id="gANTUHYUpx8kwHt70Wjk-13" value="3" style="ellipse;whiteSpace=wrap;html=1;aspect=fixed;" vertex="1" parent="1">
          <mxGeometry x="120" y="-110" width="80" height="80" as="geometry" />
        </mxCell>
        <mxCell id="gANTUHYUpx8kwHt70Wjk-15" value="E + T" style="ellipse;whiteSpace=wrap;html=1;aspect=fixed;" vertex="1" parent="1">
          <mxGeometry x="300" y="-230" width="80" height="80" as="geometry" />
        </mxCell>
        <mxCell id="gANTUHYUpx8kwHt70Wjk-25" style="rounded=0;orthogonalLoop=1;jettySize=auto;html=1;" edge="1" parent="1" source="gANTUHYUpx8kwHt70Wjk-16" target="gANTUHYUpx8kwHt70Wjk-19">
          <mxGeometry relative="1" as="geometry" />
        </mxCell>
        <mxCell id="gANTUHYUpx8kwHt70Wjk-16" value="T" style="ellipse;whiteSpace=wrap;html=1;aspect=fixed;" vertex="1" parent="1">
          <mxGeometry x="250" y="-130" width="80" height="80" as="geometry" />
        </mxCell>
        <mxCell id="gANTUHYUpx8kwHt70Wjk-26" style="rounded=0;orthogonalLoop=1;jettySize=auto;html=1;" edge="1" parent="1" source="gANTUHYUpx8kwHt70Wjk-17" target="gANTUHYUpx8kwHt70Wjk-18">
          <mxGeometry relative="1" as="geometry" />
        </mxCell>
        <mxCell id="gANTUHYUpx8kwHt70Wjk-17" value="F" style="ellipse;whiteSpace=wrap;html=1;aspect=fixed;" vertex="1" parent="1">
          <mxGeometry x="390" y="-130" width="80" height="80" as="geometry" />
        </mxCell>
        <mxCell id="gANTUHYUpx8kwHt70Wjk-28" style="rounded=0;orthogonalLoop=1;jettySize=auto;html=1;" edge="1" parent="1" source="gANTUHYUpx8kwHt70Wjk-18" target="gANTUHYUpx8kwHt70Wjk-20">
          <mxGeometry relative="1" as="geometry" />
        </mxCell>
        <mxCell id="gANTUHYUpx8kwHt70Wjk-18" value="N" style="ellipse;whiteSpace=wrap;html=1;aspect=fixed;" vertex="1" parent="1">
          <mxGeometry x="410" y="-10" width="80" height="80" as="geometry" />
        </mxCell>
        <mxCell id="gANTUHYUpx8kwHt70Wjk-27" style="rounded=0;orthogonalLoop=1;jettySize=auto;html=1;" edge="1" parent="1" source="gANTUHYUpx8kwHt70Wjk-19" target="gANTUHYUpx8kwHt70Wjk-21">
          <mxGeometry relative="1" as="geometry" />
        </mxCell>
        <mxCell id="gANTUHYUpx8kwHt70Wjk-19" value="F" style="ellipse;whiteSpace=wrap;html=1;aspect=fixed;" vertex="1" parent="1">
          <mxGeometry x="240" width="80" height="80" as="geometry" />
        </mxCell>
        <mxCell id="gANTUHYUpx8kwHt70Wjk-20" value="1" style="ellipse;whiteSpace=wrap;html=1;aspect=fixed;" vertex="1" parent="1">
          <mxGeometry x="430" y="110" width="80" height="80" as="geometry" />
        </mxCell>
        <mxCell id="gANTUHYUpx8kwHt70Wjk-21" value="2" style="ellipse;whiteSpace=wrap;html=1;aspect=fixed;" vertex="1" parent="1">
          <mxGeometry x="230" y="120" width="80" height="80" as="geometry" />
        </mxCell>
        <mxCell id="gANTUHYUpx8kwHt70Wjk-23" style="rounded=0;orthogonalLoop=1;jettySize=auto;html=1;entryX=0.835;entryY=0.045;entryDx=0;entryDy=0;entryPerimeter=0;" edge="1" parent="1" source="gANTUHYUpx8kwHt70Wjk-15" target="gANTUHYUpx8kwHt70Wjk-16">
          <mxGeometry relative="1" as="geometry" />
        </mxCell>
        <mxCell id="gANTUHYUpx8kwHt70Wjk-24" style="rounded=0;orthogonalLoop=1;jettySize=auto;html=1;entryX=0.225;entryY=0.045;entryDx=0;entryDy=0;entryPerimeter=0;" edge="1" parent="1" source="gANTUHYUpx8kwHt70Wjk-15" target="gANTUHYUpx8kwHt70Wjk-17">
          <mxGeometry relative="1" as="geometry" />
        </mxCell>
      </root>
    </mxGraphModel>
  </diagram>
  <diagram id="ry5NuybuqhDvU5Mllc0c" name="3">
    <mxGraphModel dx="1167" dy="1689" grid="1" gridSize="10" guides="1" tooltips="1" connect="1" arrows="1" fold="1" page="1" pageScale="1" pageWidth="850" pageHeight="1100" math="0" shadow="0">
      <root>
        <mxCell id="0" />
        <mxCell id="1" parent="0" />
        <mxCell id="eR0EZQJGESaIX-oaRny2-1" style="edgeStyle=orthogonalEdgeStyle;rounded=0;orthogonalLoop=1;jettySize=auto;html=1;" edge="1" parent="1" source="44-5USoj3zY_oH0FjsuE-1" target="44-5USoj3zY_oH0FjsuE-3">
          <mxGeometry relative="1" as="geometry" />
        </mxCell>
        <mxCell id="44-5USoj3zY_oH0FjsuE-1" value="$" style="ellipse;whiteSpace=wrap;html=1;aspect=fixed;" vertex="1" parent="1">
          <mxGeometry x="390" y="220" width="80" height="80" as="geometry" />
        </mxCell>
        <mxCell id="eR0EZQJGESaIX-oaRny2-4" style="edgeStyle=orthogonalEdgeStyle;rounded=0;orthogonalLoop=1;jettySize=auto;html=1;" edge="1" parent="1" source="44-5USoj3zY_oH0FjsuE-2" target="eR0EZQJGESaIX-oaRny2-3">
          <mxGeometry relative="1" as="geometry" />
        </mxCell>
        <mxCell id="44-5USoj3zY_oH0FjsuE-2" value="T" style="ellipse;whiteSpace=wrap;html=1;aspect=fixed;" vertex="1" parent="1">
          <mxGeometry x="390" y="430" width="80" height="80" as="geometry" />
        </mxCell>
        <mxCell id="eR0EZQJGESaIX-oaRny2-2" style="rounded=0;orthogonalLoop=1;jettySize=auto;html=1;" edge="1" parent="1" source="44-5USoj3zY_oH0FjsuE-3" target="44-5USoj3zY_oH0FjsuE-2">
          <mxGeometry relative="1" as="geometry" />
        </mxCell>
        <mxCell id="44-5USoj3zY_oH0FjsuE-3" value="E" style="ellipse;whiteSpace=wrap;html=1;aspect=fixed;" vertex="1" parent="1">
          <mxGeometry x="390" y="320" width="80" height="80" as="geometry" />
        </mxCell>
        <mxCell id="44-5USoj3zY_oH0FjsuE-5" value="&lt;b&gt;(3 + 5) * (2 - 4)&lt;/b&gt;" style="text;html=1;strokeColor=none;fillColor=none;align=center;verticalAlign=middle;whiteSpace=wrap;rounded=0;" vertex="1" parent="1">
          <mxGeometry x="355" y="180" width="150" height="30" as="geometry" />
        </mxCell>
        <mxCell id="eR0EZQJGESaIX-oaRny2-7" style="rounded=0;orthogonalLoop=1;jettySize=auto;html=1;" edge="1" parent="1" source="eR0EZQJGESaIX-oaRny2-3" target="eR0EZQJGESaIX-oaRny2-5">
          <mxGeometry relative="1" as="geometry" />
        </mxCell>
        <mxCell id="eR0EZQJGESaIX-oaRny2-8" style="rounded=0;orthogonalLoop=1;jettySize=auto;html=1;entryX=0.5;entryY=0;entryDx=0;entryDy=0;" edge="1" parent="1" source="eR0EZQJGESaIX-oaRny2-3" target="eR0EZQJGESaIX-oaRny2-6">
          <mxGeometry relative="1" as="geometry" />
        </mxCell>
        <mxCell id="eR0EZQJGESaIX-oaRny2-3" value="T * F" style="ellipse;whiteSpace=wrap;html=1;aspect=fixed;" vertex="1" parent="1">
          <mxGeometry x="390" y="540" width="80" height="80" as="geometry" />
        </mxCell>
        <mxCell id="eR0EZQJGESaIX-oaRny2-10" style="rounded=0;orthogonalLoop=1;jettySize=auto;html=1;" edge="1" parent="1" source="eR0EZQJGESaIX-oaRny2-5" target="eR0EZQJGESaIX-oaRny2-9">
          <mxGeometry relative="1" as="geometry" />
        </mxCell>
        <mxCell id="eR0EZQJGESaIX-oaRny2-5" value="F" style="ellipse;whiteSpace=wrap;html=1;aspect=fixed;" vertex="1" parent="1">
          <mxGeometry x="290" y="680" width="80" height="80" as="geometry" />
        </mxCell>
        <mxCell id="eR0EZQJGESaIX-oaRny2-14" style="rounded=0;orthogonalLoop=1;jettySize=auto;html=1;entryX=0.5;entryY=0;entryDx=0;entryDy=0;" edge="1" parent="1" source="eR0EZQJGESaIX-oaRny2-6" target="eR0EZQJGESaIX-oaRny2-11">
          <mxGeometry relative="1" as="geometry" />
        </mxCell>
        <mxCell id="eR0EZQJGESaIX-oaRny2-6" value="(E)" style="ellipse;whiteSpace=wrap;html=1;aspect=fixed;" vertex="1" parent="1">
          <mxGeometry x="490" y="680" width="80" height="80" as="geometry" />
        </mxCell>
        <mxCell id="eR0EZQJGESaIX-oaRny2-13" style="rounded=0;orthogonalLoop=1;jettySize=auto;html=1;" edge="1" parent="1" source="eR0EZQJGESaIX-oaRny2-9" target="eR0EZQJGESaIX-oaRny2-12">
          <mxGeometry relative="1" as="geometry" />
        </mxCell>
        <mxCell id="eR0EZQJGESaIX-oaRny2-9" value="(E)" style="ellipse;whiteSpace=wrap;html=1;aspect=fixed;" vertex="1" parent="1">
          <mxGeometry x="275" y="800" width="80" height="80" as="geometry" />
        </mxCell>
        <mxCell id="eR0EZQJGESaIX-oaRny2-51" style="rounded=0;orthogonalLoop=1;jettySize=auto;html=1;" edge="1" parent="1" source="eR0EZQJGESaIX-oaRny2-11" target="eR0EZQJGESaIX-oaRny2-49">
          <mxGeometry relative="1" as="geometry" />
        </mxCell>
        <mxCell id="eR0EZQJGESaIX-oaRny2-11" value="E - T" style="ellipse;whiteSpace=wrap;html=1;aspect=fixed;" vertex="1" parent="1">
          <mxGeometry x="505" y="800" width="80" height="80" as="geometry" />
        </mxCell>
        <mxCell id="eR0EZQJGESaIX-oaRny2-25" style="rounded=0;orthogonalLoop=1;jettySize=auto;html=1;" edge="1" parent="1" source="eR0EZQJGESaIX-oaRny2-12" target="eR0EZQJGESaIX-oaRny2-15">
          <mxGeometry relative="1" as="geometry" />
        </mxCell>
        <mxCell id="eR0EZQJGESaIX-oaRny2-26" style="rounded=0;orthogonalLoop=1;jettySize=auto;html=1;" edge="1" parent="1" source="eR0EZQJGESaIX-oaRny2-12" target="eR0EZQJGESaIX-oaRny2-24">
          <mxGeometry relative="1" as="geometry" />
        </mxCell>
        <mxCell id="eR0EZQJGESaIX-oaRny2-12" value="E + T" style="ellipse;whiteSpace=wrap;html=1;aspect=fixed;" vertex="1" parent="1">
          <mxGeometry x="270" y="910" width="80" height="80" as="geometry" />
        </mxCell>
        <mxCell id="eR0EZQJGESaIX-oaRny2-27" style="rounded=0;orthogonalLoop=1;jettySize=auto;html=1;entryX=0.5;entryY=0;entryDx=0;entryDy=0;" edge="1" parent="1" source="eR0EZQJGESaIX-oaRny2-15" target="eR0EZQJGESaIX-oaRny2-17">
          <mxGeometry relative="1" as="geometry" />
        </mxCell>
        <mxCell id="eR0EZQJGESaIX-oaRny2-15" value="T" style="ellipse;whiteSpace=wrap;html=1;aspect=fixed;" vertex="1" parent="1">
          <mxGeometry x="195" y="1000" width="80" height="80" as="geometry" />
        </mxCell>
        <mxCell id="eR0EZQJGESaIX-oaRny2-29" style="rounded=0;orthogonalLoop=1;jettySize=auto;html=1;" edge="1" parent="1" source="eR0EZQJGESaIX-oaRny2-17" target="eR0EZQJGESaIX-oaRny2-18">
          <mxGeometry relative="1" as="geometry" />
        </mxCell>
        <mxCell id="eR0EZQJGESaIX-oaRny2-17" value="F" style="ellipse;whiteSpace=wrap;html=1;aspect=fixed;" vertex="1" parent="1">
          <mxGeometry x="190" y="1120" width="80" height="80" as="geometry" />
        </mxCell>
        <mxCell id="eR0EZQJGESaIX-oaRny2-31" style="edgeStyle=orthogonalEdgeStyle;rounded=0;orthogonalLoop=1;jettySize=auto;html=1;entryX=0.5;entryY=0;entryDx=0;entryDy=0;" edge="1" parent="1" source="eR0EZQJGESaIX-oaRny2-18" target="eR0EZQJGESaIX-oaRny2-19">
          <mxGeometry relative="1" as="geometry" />
        </mxCell>
        <mxCell id="eR0EZQJGESaIX-oaRny2-18" value="N" style="ellipse;whiteSpace=wrap;html=1;aspect=fixed;" vertex="1" parent="1">
          <mxGeometry x="190" y="1220" width="80" height="80" as="geometry" />
        </mxCell>
        <mxCell id="eR0EZQJGESaIX-oaRny2-33" style="edgeStyle=orthogonalEdgeStyle;rounded=0;orthogonalLoop=1;jettySize=auto;html=1;entryX=0.5;entryY=0;entryDx=0;entryDy=0;" edge="1" parent="1" source="eR0EZQJGESaIX-oaRny2-19" target="eR0EZQJGESaIX-oaRny2-21">
          <mxGeometry relative="1" as="geometry" />
        </mxCell>
        <mxCell id="eR0EZQJGESaIX-oaRny2-19" value="D" style="ellipse;whiteSpace=wrap;html=1;aspect=fixed;" vertex="1" parent="1">
          <mxGeometry x="190" y="1330" width="80" height="80" as="geometry" />
        </mxCell>
        <mxCell id="eR0EZQJGESaIX-oaRny2-30" style="edgeStyle=orthogonalEdgeStyle;rounded=0;orthogonalLoop=1;jettySize=auto;html=1;" edge="1" parent="1" source="eR0EZQJGESaIX-oaRny2-20" target="eR0EZQJGESaIX-oaRny2-22">
          <mxGeometry relative="1" as="geometry" />
        </mxCell>
        <mxCell id="eR0EZQJGESaIX-oaRny2-20" value="N" style="ellipse;whiteSpace=wrap;html=1;aspect=fixed;" vertex="1" parent="1">
          <mxGeometry x="355" y="1120" width="80" height="80" as="geometry" />
        </mxCell>
        <mxCell id="eR0EZQJGESaIX-oaRny2-21" value="3" style="ellipse;whiteSpace=wrap;html=1;aspect=fixed;" vertex="1" parent="1">
          <mxGeometry x="190" y="1440" width="80" height="80" as="geometry" />
        </mxCell>
        <mxCell id="eR0EZQJGESaIX-oaRny2-32" style="rounded=0;orthogonalLoop=1;jettySize=auto;html=1;" edge="1" parent="1" source="eR0EZQJGESaIX-oaRny2-22" target="eR0EZQJGESaIX-oaRny2-23">
          <mxGeometry relative="1" as="geometry" />
        </mxCell>
        <mxCell id="eR0EZQJGESaIX-oaRny2-22" value="D" style="ellipse;whiteSpace=wrap;html=1;aspect=fixed;" vertex="1" parent="1">
          <mxGeometry x="355" y="1230" width="80" height="80" as="geometry" />
        </mxCell>
        <mxCell id="eR0EZQJGESaIX-oaRny2-23" value="5" style="ellipse;whiteSpace=wrap;html=1;aspect=fixed;" vertex="1" parent="1">
          <mxGeometry x="360" y="1340" width="80" height="80" as="geometry" />
        </mxCell>
        <mxCell id="eR0EZQJGESaIX-oaRny2-28" style="rounded=0;orthogonalLoop=1;jettySize=auto;html=1;entryX=0.5;entryY=0;entryDx=0;entryDy=0;" edge="1" parent="1" source="eR0EZQJGESaIX-oaRny2-24" target="eR0EZQJGESaIX-oaRny2-20">
          <mxGeometry relative="1" as="geometry" />
        </mxCell>
        <mxCell id="eR0EZQJGESaIX-oaRny2-24" value="F" style="ellipse;whiteSpace=wrap;html=1;aspect=fixed;" vertex="1" parent="1">
          <mxGeometry x="350" y="1000" width="80" height="80" as="geometry" />
        </mxCell>
        <mxCell id="eR0EZQJGESaIX-oaRny2-34" style="rounded=0;orthogonalLoop=1;jettySize=auto;html=1;entryX=0.5;entryY=0;entryDx=0;entryDy=0;" edge="1" parent="1" source="eR0EZQJGESaIX-oaRny2-35" target="eR0EZQJGESaIX-oaRny2-37">
          <mxGeometry relative="1" as="geometry" />
        </mxCell>
        <mxCell id="eR0EZQJGESaIX-oaRny2-35" value="T" style="ellipse;whiteSpace=wrap;html=1;aspect=fixed;" vertex="1" parent="1">
          <mxGeometry x="485" y="900" width="80" height="80" as="geometry" />
        </mxCell>
        <mxCell id="eR0EZQJGESaIX-oaRny2-36" style="rounded=0;orthogonalLoop=1;jettySize=auto;html=1;" edge="1" parent="1" source="eR0EZQJGESaIX-oaRny2-37" target="eR0EZQJGESaIX-oaRny2-39">
          <mxGeometry relative="1" as="geometry" />
        </mxCell>
        <mxCell id="eR0EZQJGESaIX-oaRny2-37" value="F" style="ellipse;whiteSpace=wrap;html=1;aspect=fixed;" vertex="1" parent="1">
          <mxGeometry x="480" y="1020" width="80" height="80" as="geometry" />
        </mxCell>
        <mxCell id="eR0EZQJGESaIX-oaRny2-38" style="edgeStyle=orthogonalEdgeStyle;rounded=0;orthogonalLoop=1;jettySize=auto;html=1;entryX=0.5;entryY=0;entryDx=0;entryDy=0;" edge="1" parent="1" source="eR0EZQJGESaIX-oaRny2-39" target="eR0EZQJGESaIX-oaRny2-41">
          <mxGeometry relative="1" as="geometry" />
        </mxCell>
        <mxCell id="eR0EZQJGESaIX-oaRny2-39" value="N" style="ellipse;whiteSpace=wrap;html=1;aspect=fixed;" vertex="1" parent="1">
          <mxGeometry x="480" y="1120" width="80" height="80" as="geometry" />
        </mxCell>
        <mxCell id="eR0EZQJGESaIX-oaRny2-40" style="edgeStyle=orthogonalEdgeStyle;rounded=0;orthogonalLoop=1;jettySize=auto;html=1;entryX=0.5;entryY=0;entryDx=0;entryDy=0;" edge="1" parent="1" source="eR0EZQJGESaIX-oaRny2-41" target="eR0EZQJGESaIX-oaRny2-44">
          <mxGeometry relative="1" as="geometry" />
        </mxCell>
        <mxCell id="eR0EZQJGESaIX-oaRny2-41" value="D" style="ellipse;whiteSpace=wrap;html=1;aspect=fixed;" vertex="1" parent="1">
          <mxGeometry x="480" y="1230" width="80" height="80" as="geometry" />
        </mxCell>
        <mxCell id="eR0EZQJGESaIX-oaRny2-42" style="edgeStyle=orthogonalEdgeStyle;rounded=0;orthogonalLoop=1;jettySize=auto;html=1;" edge="1" parent="1" source="eR0EZQJGESaIX-oaRny2-43" target="eR0EZQJGESaIX-oaRny2-46">
          <mxGeometry relative="1" as="geometry" />
        </mxCell>
        <mxCell id="eR0EZQJGESaIX-oaRny2-43" value="N" style="ellipse;whiteSpace=wrap;html=1;aspect=fixed;" vertex="1" parent="1">
          <mxGeometry x="645" y="1020" width="80" height="80" as="geometry" />
        </mxCell>
        <mxCell id="eR0EZQJGESaIX-oaRny2-44" value="2" style="ellipse;whiteSpace=wrap;html=1;aspect=fixed;" vertex="1" parent="1">
          <mxGeometry x="480" y="1340" width="80" height="80" as="geometry" />
        </mxCell>
        <mxCell id="eR0EZQJGESaIX-oaRny2-45" style="rounded=0;orthogonalLoop=1;jettySize=auto;html=1;" edge="1" parent="1" source="eR0EZQJGESaIX-oaRny2-46" target="eR0EZQJGESaIX-oaRny2-47">
          <mxGeometry relative="1" as="geometry" />
        </mxCell>
        <mxCell id="eR0EZQJGESaIX-oaRny2-46" value="D" style="ellipse;whiteSpace=wrap;html=1;aspect=fixed;" vertex="1" parent="1">
          <mxGeometry x="645" y="1130" width="80" height="80" as="geometry" />
        </mxCell>
        <mxCell id="eR0EZQJGESaIX-oaRny2-47" value="4" style="ellipse;whiteSpace=wrap;html=1;aspect=fixed;" vertex="1" parent="1">
          <mxGeometry x="650" y="1240" width="80" height="80" as="geometry" />
        </mxCell>
        <mxCell id="eR0EZQJGESaIX-oaRny2-48" style="rounded=0;orthogonalLoop=1;jettySize=auto;html=1;entryX=0.5;entryY=0;entryDx=0;entryDy=0;" edge="1" parent="1" source="eR0EZQJGESaIX-oaRny2-49" target="eR0EZQJGESaIX-oaRny2-43">
          <mxGeometry relative="1" as="geometry" />
        </mxCell>
        <mxCell id="eR0EZQJGESaIX-oaRny2-49" value="F" style="ellipse;whiteSpace=wrap;html=1;aspect=fixed;" vertex="1" parent="1">
          <mxGeometry x="640" y="900" width="80" height="80" as="geometry" />
        </mxCell>
        <mxCell id="eR0EZQJGESaIX-oaRny2-50" style="rounded=0;orthogonalLoop=1;jettySize=auto;html=1;entryX=0.688;entryY=0.027;entryDx=0;entryDy=0;entryPerimeter=0;" edge="1" parent="1" source="eR0EZQJGESaIX-oaRny2-11" target="eR0EZQJGESaIX-oaRny2-35">
          <mxGeometry relative="1" as="geometry" />
        </mxCell>
        <mxCell id="eR0EZQJGESaIX-oaRny2-55" style="edgeStyle=orthogonalEdgeStyle;rounded=0;orthogonalLoop=1;jettySize=auto;html=1;entryX=0.5;entryY=0;entryDx=0;entryDy=0;" edge="1" parent="1" source="eR0EZQJGESaIX-oaRny2-52" target="eR0EZQJGESaIX-oaRny2-54">
          <mxGeometry relative="1" as="geometry" />
        </mxCell>
        <mxCell id="eR0EZQJGESaIX-oaRny2-52" value="$" style="ellipse;whiteSpace=wrap;html=1;aspect=fixed;" vertex="1" parent="1">
          <mxGeometry x="365" y="-1020" width="80" height="80" as="geometry" />
        </mxCell>
        <mxCell id="eR0EZQJGESaIX-oaRny2-53" value="&lt;strong&gt;3 + (2 * 4)&lt;/strong&gt;" style="text;html=1;strokeColor=none;fillColor=none;align=center;verticalAlign=middle;whiteSpace=wrap;rounded=0;" vertex="1" parent="1">
          <mxGeometry x="330" y="-1060" width="150" height="30" as="geometry" />
        </mxCell>
        <mxCell id="eR0EZQJGESaIX-oaRny2-57" style="edgeStyle=orthogonalEdgeStyle;rounded=0;orthogonalLoop=1;jettySize=auto;html=1;entryX=0.5;entryY=0;entryDx=0;entryDy=0;" edge="1" parent="1" source="eR0EZQJGESaIX-oaRny2-54" target="eR0EZQJGESaIX-oaRny2-56">
          <mxGeometry relative="1" as="geometry" />
        </mxCell>
        <mxCell id="eR0EZQJGESaIX-oaRny2-54" value="E" style="ellipse;whiteSpace=wrap;html=1;aspect=fixed;" vertex="1" parent="1">
          <mxGeometry x="365" y="-920" width="80" height="80" as="geometry" />
        </mxCell>
        <mxCell id="eR0EZQJGESaIX-oaRny2-68" style="edgeStyle=orthogonalEdgeStyle;rounded=0;orthogonalLoop=1;jettySize=auto;html=1;" edge="1" parent="1" source="eR0EZQJGESaIX-oaRny2-56" target="eR0EZQJGESaIX-oaRny2-58">
          <mxGeometry relative="1" as="geometry" />
        </mxCell>
        <mxCell id="eR0EZQJGESaIX-oaRny2-56" value="T" style="ellipse;whiteSpace=wrap;html=1;aspect=fixed;" vertex="1" parent="1">
          <mxGeometry x="365" y="-820" width="80" height="80" as="geometry" />
        </mxCell>
        <mxCell id="eR0EZQJGESaIX-oaRny2-75" style="rounded=0;orthogonalLoop=1;jettySize=auto;html=1;" edge="1" parent="1" source="eR0EZQJGESaIX-oaRny2-58" target="eR0EZQJGESaIX-oaRny2-60">
          <mxGeometry relative="1" as="geometry" />
        </mxCell>
        <mxCell id="eR0EZQJGESaIX-oaRny2-76" style="rounded=0;orthogonalLoop=1;jettySize=auto;html=1;" edge="1" parent="1" source="eR0EZQJGESaIX-oaRny2-58" target="eR0EZQJGESaIX-oaRny2-59">
          <mxGeometry relative="1" as="geometry" />
        </mxCell>
        <mxCell id="eR0EZQJGESaIX-oaRny2-58" value="T * F" style="ellipse;whiteSpace=wrap;html=1;aspect=fixed;" vertex="1" parent="1">
          <mxGeometry x="365" y="-710" width="80" height="80" as="geometry" />
        </mxCell>
        <mxCell id="eR0EZQJGESaIX-oaRny2-78" style="rounded=0;orthogonalLoop=1;jettySize=auto;html=1;" edge="1" parent="1" source="eR0EZQJGESaIX-oaRny2-59" target="eR0EZQJGESaIX-oaRny2-69">
          <mxGeometry relative="1" as="geometry" />
        </mxCell>
        <mxCell id="eR0EZQJGESaIX-oaRny2-59" value="(E)" style="ellipse;whiteSpace=wrap;html=1;aspect=fixed;" vertex="1" parent="1">
          <mxGeometry x="460" y="-630" width="80" height="80" as="geometry" />
        </mxCell>
        <mxCell id="eR0EZQJGESaIX-oaRny2-77" style="edgeStyle=orthogonalEdgeStyle;rounded=0;orthogonalLoop=1;jettySize=auto;html=1;" edge="1" parent="1" source="eR0EZQJGESaIX-oaRny2-60" target="eR0EZQJGESaIX-oaRny2-61">
          <mxGeometry relative="1" as="geometry" />
        </mxCell>
        <mxCell id="eR0EZQJGESaIX-oaRny2-60" value="F" style="ellipse;whiteSpace=wrap;html=1;aspect=fixed;" vertex="1" parent="1">
          <mxGeometry x="250" y="-630" width="80" height="80" as="geometry" />
        </mxCell>
        <mxCell id="eR0EZQJGESaIX-oaRny2-81" style="edgeStyle=orthogonalEdgeStyle;rounded=0;orthogonalLoop=1;jettySize=auto;html=1;entryX=0.5;entryY=0;entryDx=0;entryDy=0;" edge="1" parent="1" source="eR0EZQJGESaIX-oaRny2-61" target="eR0EZQJGESaIX-oaRny2-66">
          <mxGeometry relative="1" as="geometry" />
        </mxCell>
        <mxCell id="eR0EZQJGESaIX-oaRny2-61" value="N" style="ellipse;whiteSpace=wrap;html=1;aspect=fixed;" vertex="1" parent="1">
          <mxGeometry x="250" y="-520" width="80" height="80" as="geometry" />
        </mxCell>
        <mxCell id="eR0EZQJGESaIX-oaRny2-62" value="3" style="ellipse;whiteSpace=wrap;html=1;aspect=fixed;" vertex="1" parent="1">
          <mxGeometry x="250" y="-290" width="80" height="80" as="geometry" />
        </mxCell>
        <mxCell id="eR0EZQJGESaIX-oaRny2-84" style="edgeStyle=orthogonalEdgeStyle;rounded=0;orthogonalLoop=1;jettySize=auto;html=1;entryX=0.5;entryY=0;entryDx=0;entryDy=0;" edge="1" parent="1" source="eR0EZQJGESaIX-oaRny2-63" target="eR0EZQJGESaIX-oaRny2-64">
          <mxGeometry relative="1" as="geometry" />
        </mxCell>
        <mxCell id="eR0EZQJGESaIX-oaRny2-63" value="F" style="ellipse;whiteSpace=wrap;html=1;aspect=fixed;" vertex="1" parent="1">
          <mxGeometry x="555" y="-430" width="80" height="80" as="geometry" />
        </mxCell>
        <mxCell id="eR0EZQJGESaIX-oaRny2-86" style="edgeStyle=orthogonalEdgeStyle;rounded=0;orthogonalLoop=1;jettySize=auto;html=1;entryX=0.5;entryY=0;entryDx=0;entryDy=0;" edge="1" parent="1" source="eR0EZQJGESaIX-oaRny2-64" target="eR0EZQJGESaIX-oaRny2-67">
          <mxGeometry relative="1" as="geometry" />
        </mxCell>
        <mxCell id="eR0EZQJGESaIX-oaRny2-64" value="N" style="ellipse;whiteSpace=wrap;html=1;aspect=fixed;" vertex="1" parent="1">
          <mxGeometry x="555" y="-310" width="80" height="80" as="geometry" />
        </mxCell>
        <mxCell id="eR0EZQJGESaIX-oaRny2-65" value="4" style="ellipse;whiteSpace=wrap;html=1;aspect=fixed;" vertex="1" parent="1">
          <mxGeometry x="560" y="-80" width="80" height="80" as="geometry" />
        </mxCell>
        <mxCell id="eR0EZQJGESaIX-oaRny2-82" style="edgeStyle=orthogonalEdgeStyle;rounded=0;orthogonalLoop=1;jettySize=auto;html=1;entryX=0.5;entryY=0;entryDx=0;entryDy=0;" edge="1" parent="1" source="eR0EZQJGESaIX-oaRny2-66" target="eR0EZQJGESaIX-oaRny2-62">
          <mxGeometry relative="1" as="geometry" />
        </mxCell>
        <mxCell id="eR0EZQJGESaIX-oaRny2-66" value="D" style="ellipse;whiteSpace=wrap;html=1;aspect=fixed;" vertex="1" parent="1">
          <mxGeometry x="250" y="-400" width="80" height="80" as="geometry" />
        </mxCell>
        <mxCell id="eR0EZQJGESaIX-oaRny2-89" style="rounded=0;orthogonalLoop=1;jettySize=auto;html=1;" edge="1" parent="1" source="eR0EZQJGESaIX-oaRny2-67" target="eR0EZQJGESaIX-oaRny2-65">
          <mxGeometry relative="1" as="geometry" />
        </mxCell>
        <mxCell id="eR0EZQJGESaIX-oaRny2-67" value="D" style="ellipse;whiteSpace=wrap;html=1;aspect=fixed;" vertex="1" parent="1">
          <mxGeometry x="555" y="-190" width="80" height="80" as="geometry" />
        </mxCell>
        <mxCell id="eR0EZQJGESaIX-oaRny2-79" style="rounded=0;orthogonalLoop=1;jettySize=auto;html=1;entryX=1;entryY=0;entryDx=0;entryDy=0;" edge="1" parent="1" source="eR0EZQJGESaIX-oaRny2-69" target="eR0EZQJGESaIX-oaRny2-70">
          <mxGeometry relative="1" as="geometry" />
        </mxCell>
        <mxCell id="eR0EZQJGESaIX-oaRny2-69" value="E - T" style="ellipse;whiteSpace=wrap;html=1;aspect=fixed;" vertex="1" parent="1">
          <mxGeometry x="470" y="-520" width="80" height="80" as="geometry" />
        </mxCell>
        <mxCell id="eR0EZQJGESaIX-oaRny2-70" value="T" style="ellipse;whiteSpace=wrap;html=1;aspect=fixed;" vertex="1" parent="1">
          <mxGeometry x="395" y="-430" width="80" height="80" as="geometry" />
        </mxCell>
        <mxCell id="eR0EZQJGESaIX-oaRny2-85" style="edgeStyle=orthogonalEdgeStyle;rounded=0;orthogonalLoop=1;jettySize=auto;html=1;entryX=0.5;entryY=0;entryDx=0;entryDy=0;" edge="1" parent="1" source="eR0EZQJGESaIX-oaRny2-71" target="eR0EZQJGESaIX-oaRny2-72">
          <mxGeometry relative="1" as="geometry" />
        </mxCell>
        <mxCell id="eR0EZQJGESaIX-oaRny2-71" value="F" style="ellipse;whiteSpace=wrap;html=1;aspect=fixed;" vertex="1" parent="1">
          <mxGeometry x="400" y="-320" width="80" height="80" as="geometry" />
        </mxCell>
        <mxCell id="eR0EZQJGESaIX-oaRny2-87" style="edgeStyle=orthogonalEdgeStyle;rounded=0;orthogonalLoop=1;jettySize=auto;html=1;entryX=0.5;entryY=0;entryDx=0;entryDy=0;" edge="1" parent="1" source="eR0EZQJGESaIX-oaRny2-72" target="eR0EZQJGESaIX-oaRny2-74">
          <mxGeometry relative="1" as="geometry" />
        </mxCell>
        <mxCell id="eR0EZQJGESaIX-oaRny2-72" value="N" style="ellipse;whiteSpace=wrap;html=1;aspect=fixed;" vertex="1" parent="1">
          <mxGeometry x="400" y="-210" width="80" height="80" as="geometry" />
        </mxCell>
        <mxCell id="eR0EZQJGESaIX-oaRny2-73" value="2" style="ellipse;whiteSpace=wrap;html=1;aspect=fixed;" vertex="1" parent="1">
          <mxGeometry x="400" y="20" width="80" height="80" as="geometry" />
        </mxCell>
        <mxCell id="eR0EZQJGESaIX-oaRny2-88" style="edgeStyle=orthogonalEdgeStyle;rounded=0;orthogonalLoop=1;jettySize=auto;html=1;entryX=0.5;entryY=0;entryDx=0;entryDy=0;" edge="1" parent="1" source="eR0EZQJGESaIX-oaRny2-74" target="eR0EZQJGESaIX-oaRny2-73">
          <mxGeometry relative="1" as="geometry" />
        </mxCell>
        <mxCell id="eR0EZQJGESaIX-oaRny2-74" value="D" style="ellipse;whiteSpace=wrap;html=1;aspect=fixed;" vertex="1" parent="1">
          <mxGeometry x="400" y="-90" width="80" height="80" as="geometry" />
        </mxCell>
        <mxCell id="eR0EZQJGESaIX-oaRny2-80" style="rounded=0;orthogonalLoop=1;jettySize=auto;html=1;entryX=0.313;entryY=0.003;entryDx=0;entryDy=0;entryPerimeter=0;" edge="1" parent="1" source="eR0EZQJGESaIX-oaRny2-69" target="eR0EZQJGESaIX-oaRny2-63">
          <mxGeometry relative="1" as="geometry" />
        </mxCell>
        <mxCell id="eR0EZQJGESaIX-oaRny2-83" style="rounded=0;orthogonalLoop=1;jettySize=auto;html=1;entryX=0.381;entryY=0.045;entryDx=0;entryDy=0;entryPerimeter=0;" edge="1" parent="1" source="eR0EZQJGESaIX-oaRny2-70" target="eR0EZQJGESaIX-oaRny2-71">
          <mxGeometry relative="1" as="geometry" />
        </mxCell>
      </root>
    </mxGraphModel>
  </diagram>
  <diagram id="omSt8UDZSmncGMahxlJJ" name="4">
    <mxGraphModel dx="1167" dy="1689" grid="1" gridSize="10" guides="1" tooltips="1" connect="1" arrows="1" fold="1" page="1" pageScale="1" pageWidth="850" pageHeight="1100" math="0" shadow="0">
      <root>
        <mxCell id="0" />
        <mxCell id="1" parent="0" />
        <mxCell id="_OU2xZvszXizQxHmiWbA-5" style="edgeStyle=orthogonalEdgeStyle;rounded=0;orthogonalLoop=1;jettySize=auto;html=1;" edge="1" parent="1" source="_OU2xZvszXizQxHmiWbA-1" target="_OU2xZvszXizQxHmiWbA-3">
          <mxGeometry relative="1" as="geometry" />
        </mxCell>
        <mxCell id="_OU2xZvszXizQxHmiWbA-1" value="$" style="ellipse;whiteSpace=wrap;html=1;aspect=fixed;" vertex="1" parent="1">
          <mxGeometry x="210" y="350" width="80" height="80" as="geometry" />
        </mxCell>
        <mxCell id="7GE-UErhIdFO6F3eKy5P-33" style="edgeStyle=orthogonalEdgeStyle;rounded=0;orthogonalLoop=1;jettySize=auto;html=1;" edge="1" parent="1" source="_OU2xZvszXizQxHmiWbA-3" target="7GE-UErhIdFO6F3eKy5P-31">
          <mxGeometry relative="1" as="geometry" />
        </mxCell>
        <mxCell id="7GE-UErhIdFO6F3eKy5P-34" style="rounded=0;orthogonalLoop=1;jettySize=auto;html=1;" edge="1" parent="1" source="_OU2xZvszXizQxHmiWbA-3" target="7GE-UErhIdFO6F3eKy5P-32">
          <mxGeometry relative="1" as="geometry" />
        </mxCell>
        <mxCell id="_OU2xZvszXizQxHmiWbA-3" value="+N" style="ellipse;whiteSpace=wrap;html=1;aspect=fixed;" vertex="1" parent="1">
          <mxGeometry x="210" y="480" width="80" height="80" as="geometry" />
        </mxCell>
        <mxCell id="_OU2xZvszXizQxHmiWbA-4" value="123.456" style="text;html=1;strokeColor=none;fillColor=none;align=center;verticalAlign=middle;whiteSpace=wrap;rounded=0;" vertex="1" parent="1">
          <mxGeometry x="220" y="290" width="60" height="30" as="geometry" />
        </mxCell>
        <mxCell id="7GE-UErhIdFO6F3eKy5P-5" style="edgeStyle=orthogonalEdgeStyle;rounded=0;orthogonalLoop=1;jettySize=auto;html=1;entryX=0.5;entryY=0;entryDx=0;entryDy=0;" edge="1" parent="1" source="7GE-UErhIdFO6F3eKy5P-1" target="7GE-UErhIdFO6F3eKy5P-3">
          <mxGeometry relative="1" as="geometry" />
        </mxCell>
        <mxCell id="7GE-UErhIdFO6F3eKy5P-1" value="$" style="ellipse;whiteSpace=wrap;html=1;aspect=fixed;" vertex="1" parent="1">
          <mxGeometry x="190" y="-490" width="80" height="80" as="geometry" />
        </mxCell>
        <mxCell id="7GE-UErhIdFO6F3eKy5P-11" style="rounded=0;orthogonalLoop=1;jettySize=auto;html=1;" edge="1" parent="1" source="7GE-UErhIdFO6F3eKy5P-2" target="7GE-UErhIdFO6F3eKy5P-7">
          <mxGeometry relative="1" as="geometry" />
        </mxCell>
        <mxCell id="7GE-UErhIdFO6F3eKy5P-2" value="I" style="ellipse;whiteSpace=wrap;html=1;aspect=fixed;" vertex="1" parent="1">
          <mxGeometry x="180" y="-270" width="80" height="80" as="geometry" />
        </mxCell>
        <mxCell id="7GE-UErhIdFO6F3eKy5P-9" style="rounded=0;orthogonalLoop=1;jettySize=auto;html=1;" edge="1" parent="1" source="7GE-UErhIdFO6F3eKy5P-3" target="7GE-UErhIdFO6F3eKy5P-2">
          <mxGeometry relative="1" as="geometry" />
        </mxCell>
        <mxCell id="7GE-UErhIdFO6F3eKy5P-10" style="rounded=0;orthogonalLoop=1;jettySize=auto;html=1;" edge="1" parent="1" source="7GE-UErhIdFO6F3eKy5P-3" target="7GE-UErhIdFO6F3eKy5P-6">
          <mxGeometry relative="1" as="geometry" />
        </mxCell>
        <mxCell id="7GE-UErhIdFO6F3eKy5P-3" value="-N" style="ellipse;whiteSpace=wrap;html=1;aspect=fixed;" vertex="1" parent="1">
          <mxGeometry x="190" y="-380" width="80" height="80" as="geometry" />
        </mxCell>
        <mxCell id="7GE-UErhIdFO6F3eKy5P-4" value="-12.456" style="text;html=1;strokeColor=none;fillColor=none;align=center;verticalAlign=middle;whiteSpace=wrap;rounded=0;" vertex="1" parent="1">
          <mxGeometry x="200" y="-530" width="60" height="30" as="geometry" />
        </mxCell>
        <mxCell id="7GE-UErhIdFO6F3eKy5P-12" style="edgeStyle=orthogonalEdgeStyle;rounded=0;orthogonalLoop=1;jettySize=auto;html=1;" edge="1" parent="1" source="7GE-UErhIdFO6F3eKy5P-6" target="7GE-UErhIdFO6F3eKy5P-8">
          <mxGeometry relative="1" as="geometry" />
        </mxCell>
        <mxCell id="7GE-UErhIdFO6F3eKy5P-6" value=".F" style="ellipse;whiteSpace=wrap;html=1;aspect=fixed;" vertex="1" parent="1">
          <mxGeometry x="320" y="-270" width="80" height="80" as="geometry" />
        </mxCell>
        <mxCell id="7GE-UErhIdFO6F3eKy5P-14" style="rounded=0;orthogonalLoop=1;jettySize=auto;html=1;" edge="1" parent="1" source="7GE-UErhIdFO6F3eKy5P-7" target="7GE-UErhIdFO6F3eKy5P-13">
          <mxGeometry relative="1" as="geometry" />
        </mxCell>
        <mxCell id="7GE-UErhIdFO6F3eKy5P-16" style="rounded=0;orthogonalLoop=1;jettySize=auto;html=1;" edge="1" parent="1" source="7GE-UErhIdFO6F3eKy5P-7" target="7GE-UErhIdFO6F3eKy5P-15">
          <mxGeometry relative="1" as="geometry" />
        </mxCell>
        <mxCell id="7GE-UErhIdFO6F3eKy5P-7" value="DI" style="ellipse;whiteSpace=wrap;html=1;aspect=fixed;" vertex="1" parent="1">
          <mxGeometry x="180" y="-150" width="80" height="80" as="geometry" />
        </mxCell>
        <mxCell id="7GE-UErhIdFO6F3eKy5P-21" style="rounded=0;orthogonalLoop=1;jettySize=auto;html=1;" edge="1" parent="1" source="7GE-UErhIdFO6F3eKy5P-8" target="7GE-UErhIdFO6F3eKy5P-19">
          <mxGeometry relative="1" as="geometry" />
        </mxCell>
        <mxCell id="7GE-UErhIdFO6F3eKy5P-22" style="rounded=0;orthogonalLoop=1;jettySize=auto;html=1;" edge="1" parent="1" source="7GE-UErhIdFO6F3eKy5P-8" target="7GE-UErhIdFO6F3eKy5P-20">
          <mxGeometry relative="1" as="geometry" />
        </mxCell>
        <mxCell id="7GE-UErhIdFO6F3eKy5P-8" value="DF" style="ellipse;whiteSpace=wrap;html=1;aspect=fixed;" vertex="1" parent="1">
          <mxGeometry x="320" y="-150" width="80" height="80" as="geometry" />
        </mxCell>
        <mxCell id="7GE-UErhIdFO6F3eKy5P-13" value="1" style="ellipse;whiteSpace=wrap;html=1;aspect=fixed;" vertex="1" parent="1">
          <mxGeometry x="60" y="-30" width="80" height="80" as="geometry" />
        </mxCell>
        <mxCell id="7GE-UErhIdFO6F3eKy5P-18" style="edgeStyle=orthogonalEdgeStyle;rounded=0;orthogonalLoop=1;jettySize=auto;html=1;" edge="1" parent="1" source="7GE-UErhIdFO6F3eKy5P-15" target="7GE-UErhIdFO6F3eKy5P-17">
          <mxGeometry relative="1" as="geometry" />
        </mxCell>
        <mxCell id="7GE-UErhIdFO6F3eKy5P-15" value="D" style="ellipse;whiteSpace=wrap;html=1;aspect=fixed;" vertex="1" parent="1">
          <mxGeometry x="190" y="-30" width="80" height="80" as="geometry" />
        </mxCell>
        <mxCell id="7GE-UErhIdFO6F3eKy5P-17" value="2" style="ellipse;whiteSpace=wrap;html=1;aspect=fixed;" vertex="1" parent="1">
          <mxGeometry x="190" y="80" width="80" height="80" as="geometry" />
        </mxCell>
        <mxCell id="7GE-UErhIdFO6F3eKy5P-19" value="4" style="ellipse;whiteSpace=wrap;html=1;aspect=fixed;" vertex="1" parent="1">
          <mxGeometry x="300" y="-30" width="80" height="80" as="geometry" />
        </mxCell>
        <mxCell id="7GE-UErhIdFO6F3eKy5P-24" style="rounded=0;orthogonalLoop=1;jettySize=auto;html=1;" edge="1" parent="1" source="7GE-UErhIdFO6F3eKy5P-20" target="7GE-UErhIdFO6F3eKy5P-23">
          <mxGeometry relative="1" as="geometry" />
        </mxCell>
        <mxCell id="7GE-UErhIdFO6F3eKy5P-26" style="rounded=0;orthogonalLoop=1;jettySize=auto;html=1;" edge="1" parent="1" source="7GE-UErhIdFO6F3eKy5P-20" target="7GE-UErhIdFO6F3eKy5P-25">
          <mxGeometry relative="1" as="geometry" />
        </mxCell>
        <mxCell id="7GE-UErhIdFO6F3eKy5P-20" value="D" style="ellipse;whiteSpace=wrap;html=1;aspect=fixed;" vertex="1" parent="1">
          <mxGeometry x="420" y="-30" width="80" height="80" as="geometry" />
        </mxCell>
        <mxCell id="7GE-UErhIdFO6F3eKy5P-23" value="5" style="ellipse;whiteSpace=wrap;html=1;aspect=fixed;" vertex="1" parent="1">
          <mxGeometry x="380" y="80" width="80" height="80" as="geometry" />
        </mxCell>
        <mxCell id="7GE-UErhIdFO6F3eKy5P-28" style="edgeStyle=orthogonalEdgeStyle;rounded=0;orthogonalLoop=1;jettySize=auto;html=1;entryX=0.5;entryY=0;entryDx=0;entryDy=0;" edge="1" parent="1" source="7GE-UErhIdFO6F3eKy5P-25" target="7GE-UErhIdFO6F3eKy5P-27">
          <mxGeometry relative="1" as="geometry" />
        </mxCell>
        <mxCell id="7GE-UErhIdFO6F3eKy5P-25" value="D" style="ellipse;whiteSpace=wrap;html=1;aspect=fixed;" vertex="1" parent="1">
          <mxGeometry x="520" y="80" width="80" height="80" as="geometry" />
        </mxCell>
        <mxCell id="7GE-UErhIdFO6F3eKy5P-27" value="6" style="ellipse;whiteSpace=wrap;html=1;aspect=fixed;" vertex="1" parent="1">
          <mxGeometry x="520" y="200" width="80" height="80" as="geometry" />
        </mxCell>
        <mxCell id="7GE-UErhIdFO6F3eKy5P-37" style="edgeStyle=orthogonalEdgeStyle;rounded=0;orthogonalLoop=1;jettySize=auto;html=1;" edge="1" parent="1" source="7GE-UErhIdFO6F3eKy5P-31" target="7GE-UErhIdFO6F3eKy5P-35">
          <mxGeometry relative="1" as="geometry" />
        </mxCell>
        <mxCell id="7GE-UErhIdFO6F3eKy5P-31" value="I" style="ellipse;whiteSpace=wrap;html=1;aspect=fixed;" vertex="1" parent="1">
          <mxGeometry x="210" y="610" width="80" height="80" as="geometry" />
        </mxCell>
        <mxCell id="7GE-UErhIdFO6F3eKy5P-38" style="edgeStyle=orthogonalEdgeStyle;rounded=0;orthogonalLoop=1;jettySize=auto;html=1;" edge="1" parent="1" source="7GE-UErhIdFO6F3eKy5P-32" target="7GE-UErhIdFO6F3eKy5P-36">
          <mxGeometry relative="1" as="geometry" />
        </mxCell>
        <mxCell id="7GE-UErhIdFO6F3eKy5P-32" value=".F" style="ellipse;whiteSpace=wrap;html=1;aspect=fixed;" vertex="1" parent="1">
          <mxGeometry x="420" y="610" width="80" height="80" as="geometry" />
        </mxCell>
        <mxCell id="7GE-UErhIdFO6F3eKy5P-41" style="rounded=0;orthogonalLoop=1;jettySize=auto;html=1;" edge="1" parent="1" source="7GE-UErhIdFO6F3eKy5P-35" target="7GE-UErhIdFO6F3eKy5P-39">
          <mxGeometry relative="1" as="geometry" />
        </mxCell>
        <mxCell id="7GE-UErhIdFO6F3eKy5P-42" style="rounded=0;orthogonalLoop=1;jettySize=auto;html=1;" edge="1" parent="1" source="7GE-UErhIdFO6F3eKy5P-35" target="7GE-UErhIdFO6F3eKy5P-40">
          <mxGeometry relative="1" as="geometry" />
        </mxCell>
        <mxCell id="7GE-UErhIdFO6F3eKy5P-35" value="DI" style="ellipse;whiteSpace=wrap;html=1;aspect=fixed;" vertex="1" parent="1">
          <mxGeometry x="210" y="740" width="80" height="80" as="geometry" />
        </mxCell>
        <mxCell id="7GE-UErhIdFO6F3eKy5P-36" value="DF" style="ellipse;whiteSpace=wrap;html=1;aspect=fixed;" vertex="1" parent="1">
          <mxGeometry x="420" y="740" width="80" height="80" as="geometry" />
        </mxCell>
        <mxCell id="7GE-UErhIdFO6F3eKy5P-39" value="1" style="ellipse;whiteSpace=wrap;html=1;aspect=fixed;" vertex="1" parent="1">
          <mxGeometry x="120" y="840" width="80" height="80" as="geometry" />
        </mxCell>
        <mxCell id="7GE-UErhIdFO6F3eKy5P-44" style="rounded=0;orthogonalLoop=1;jettySize=auto;html=1;" edge="1" parent="1" source="7GE-UErhIdFO6F3eKy5P-40" target="7GE-UErhIdFO6F3eKy5P-43">
          <mxGeometry relative="1" as="geometry" />
        </mxCell>
        <mxCell id="7GE-UErhIdFO6F3eKy5P-40" value="DI" style="ellipse;whiteSpace=wrap;html=1;aspect=fixed;" vertex="1" parent="1">
          <mxGeometry x="250" y="850" width="80" height="80" as="geometry" />
        </mxCell>
        <mxCell id="7GE-UErhIdFO6F3eKy5P-43" value="2" style="ellipse;whiteSpace=wrap;html=1;aspect=fixed;" vertex="1" parent="1">
          <mxGeometry x="200" y="960" width="80" height="80" as="geometry" />
        </mxCell>
        <mxCell id="7GE-UErhIdFO6F3eKy5P-48" style="edgeStyle=orthogonalEdgeStyle;rounded=0;orthogonalLoop=1;jettySize=auto;html=1;" edge="1" parent="1" source="7GE-UErhIdFO6F3eKy5P-45" target="7GE-UErhIdFO6F3eKy5P-47">
          <mxGeometry relative="1" as="geometry" />
        </mxCell>
        <mxCell id="7GE-UErhIdFO6F3eKy5P-45" value="D" style="ellipse;whiteSpace=wrap;html=1;aspect=fixed;" vertex="1" parent="1">
          <mxGeometry x="330" y="970" width="80" height="80" as="geometry" />
        </mxCell>
        <mxCell id="7GE-UErhIdFO6F3eKy5P-46" style="rounded=0;orthogonalLoop=1;jettySize=auto;html=1;entryX=0.411;entryY=0.027;entryDx=0;entryDy=0;entryPerimeter=0;" edge="1" parent="1" source="7GE-UErhIdFO6F3eKy5P-40" target="7GE-UErhIdFO6F3eKy5P-45">
          <mxGeometry relative="1" as="geometry" />
        </mxCell>
        <mxCell id="7GE-UErhIdFO6F3eKy5P-47" value="3" style="ellipse;whiteSpace=wrap;html=1;aspect=fixed;" vertex="1" parent="1">
          <mxGeometry x="330" y="1090" width="80" height="80" as="geometry" />
        </mxCell>
        <mxCell id="7GE-UErhIdFO6F3eKy5P-49" value="4" style="ellipse;whiteSpace=wrap;html=1;aspect=fixed;" vertex="1" parent="1">
          <mxGeometry x="370" y="840" width="80" height="80" as="geometry" />
        </mxCell>
        <mxCell id="7GE-UErhIdFO6F3eKy5P-50" style="rounded=0;orthogonalLoop=1;jettySize=auto;html=1;entryX=0.637;entryY=0.033;entryDx=0;entryDy=0;entryPerimeter=0;" edge="1" parent="1" source="7GE-UErhIdFO6F3eKy5P-36" target="7GE-UErhIdFO6F3eKy5P-49">
          <mxGeometry relative="1" as="geometry" />
        </mxCell>
        <mxCell id="7GE-UErhIdFO6F3eKy5P-58" style="rounded=0;orthogonalLoop=1;jettySize=auto;html=1;" edge="1" parent="1" source="7GE-UErhIdFO6F3eKy5P-51" target="7GE-UErhIdFO6F3eKy5P-55">
          <mxGeometry relative="1" as="geometry" />
        </mxCell>
        <mxCell id="7GE-UErhIdFO6F3eKy5P-51" value="DF" style="ellipse;whiteSpace=wrap;html=1;aspect=fixed;" vertex="1" parent="1">
          <mxGeometry x="510" y="840" width="80" height="80" as="geometry" />
        </mxCell>
        <mxCell id="7GE-UErhIdFO6F3eKy5P-52" style="rounded=0;orthogonalLoop=1;jettySize=auto;html=1;entryX=0.375;entryY=0;entryDx=0;entryDy=0;entryPerimeter=0;" edge="1" parent="1" source="7GE-UErhIdFO6F3eKy5P-36" target="7GE-UErhIdFO6F3eKy5P-51">
          <mxGeometry relative="1" as="geometry" />
        </mxCell>
        <mxCell id="7GE-UErhIdFO6F3eKy5P-53" value="5" style="ellipse;whiteSpace=wrap;html=1;aspect=fixed;" vertex="1" parent="1">
          <mxGeometry x="460" y="940" width="80" height="80" as="geometry" />
        </mxCell>
        <mxCell id="7GE-UErhIdFO6F3eKy5P-54" style="rounded=0;orthogonalLoop=1;jettySize=auto;html=1;entryX=0.738;entryY=0.057;entryDx=0;entryDy=0;entryPerimeter=0;" edge="1" parent="1" source="7GE-UErhIdFO6F3eKy5P-51" target="7GE-UErhIdFO6F3eKy5P-53">
          <mxGeometry relative="1" as="geometry" />
        </mxCell>
        <mxCell id="7GE-UErhIdFO6F3eKy5P-60" style="edgeStyle=orthogonalEdgeStyle;rounded=0;orthogonalLoop=1;jettySize=auto;html=1;" edge="1" parent="1" source="7GE-UErhIdFO6F3eKy5P-55" target="7GE-UErhIdFO6F3eKy5P-59">
          <mxGeometry relative="1" as="geometry" />
        </mxCell>
        <mxCell id="7GE-UErhIdFO6F3eKy5P-55" value="D" style="ellipse;whiteSpace=wrap;html=1;aspect=fixed;" vertex="1" parent="1">
          <mxGeometry x="600" y="940" width="80" height="80" as="geometry" />
        </mxCell>
        <mxCell id="7GE-UErhIdFO6F3eKy5P-59" value="6" style="ellipse;whiteSpace=wrap;html=1;aspect=fixed;" vertex="1" parent="1">
          <mxGeometry x="600" y="1060" width="80" height="80" as="geometry" />
        </mxCell>
      </root>
    </mxGraphModel>
  </diagram>
</mxfile>
